<svg version="1" xmlns="http://www.w3.org/2000/svg" width="933.333" height="933.333" viewBox="0 0 700.000000 700.000000"><path d="M544.9 127.7c-17.5 4.1-13.3 3.1-37.9 9.3-11.3 2.9-21.2 5.3-22 5.5-.8.2-6.1 1.5-11.7 2.9s-10.6 2.5-11 2.4c-.4-.1-1.9.3-3.3 1-1.9.8-21 5.7-42 10.7-.8.2-7.8 1.9-15.5 3.9s-14.9 3.8-16 4c-1.1.2-4.9 1.2-8.5 2.1l-8 2c-.8.2-21.5 5.3-46 11.5-24.5 6.1-45.3 11.3-46.3 11.5-1 .2-2.7.7-3.7 1-1 .3-2.7.7-3.7.9-1 .2-13.7 3.4-28.2 7-14.5 3.7-27.3 6.8-28.5 7-1.1.3-2.1.5-2.1.6 0 .1-.7.3-1.5.5-.8.1-13.4 3.3-28 7-28.6 7.2-29 7.3-32.1 8-1.1.2-2.9.7-3.9 1-1 .3-2.7.7-3.7.9-4.6.9-11.1 2.9-13.8 4.3-9.7 5-13.6 17.5-8.6 27.7 1.1 2.1 1.7 4.4 1.4 5-.3.6-.3.8.2.4.5-.5 2.4.4 4.2 1.8 1.9 1.4 5.7 3.2 8.3 3.9 4.5 1.2 5.8 1.1 14.7-1.2 11.2-2.9 10.5-2.7 15.8-3.8 5.5-1.2 5.5-1.2 5.8-1.5.1-.1.9-.3 1.7-.5.8-.1 3.4-.8 5.8-1.4 2.3-.7 4.6-.9 5.1-.6.5.3 1.1 0 1.3-.5.2-.6 2-1.2 4.1-1.3 2-.1 3.7-.5 3.7-.8 0-.4 1.7-1 3.8-1.4 2-.5 4.2-.9 4.7-1.1 1.4-.4 5.2-1.3 7.3-1.8 1-.2 4.8-1.2 8.5-2.1 3.6-.9 7.2-1.3 7.8-.9.7.4.9.3.6-.3-.5-.8 5.6-2.8 11.8-3.8.6-.1 1.3-.3 1.8-.5 1.1-.4 1.8-.6 6.2-1.5 5.6-1.3 5.5-1.2 5.8-1.5.1-.1.9-.3 1.7-.5.8-.2 10.7-2.6 21.9-5.5 11.3-2.8 21.1-4.8 21.8-4.5.8.2 1.1 0 .8-.5-.5-.8 2.8-1.5 3.8-.8.2.2 1.1-.3 2-1.1 1-.7 1.7-1.1 1.7-.7 0 .3 1.1.1 2.5-.4s3.6-1.2 4.8-1.4c4.3-.9 6.3-1.4 10.7-2.6 2.5-.7 5.4-1.4 6.5-1.6 3.2-.6 5.6-1.2 12-3 3.3-.9 6.7-1.7 7.5-1.8.8-.2 2.2-.5 3-.8 4.4-1.7 15-3.9 15.9-3.3.6.3 1.1.2 1.1-.4 0-.5 1.9-1.3 4.3-1.7 4.8-.9 5.6-1.1 6-1.4.1-.1.9-.3 1.7-.5.8-.2 8.8-2.2 17.8-4.4 9-2.3 16.9-3.8 17.5-3.4.7.3.8.2.4-.2-.6-.7 6.6-2.9 16.7-5 1-.3 4.3-1.2 7.4-2 3-.9 6-1.4 6.8-1.1.7.3 1.4.1 1.6-.3.5-1.3 22.5-6.4 23.9-5.5.8.4 1 .3.5-.4-.4-.7 0-1.3 1.1-1.4 1.8-.1 3.3-.4 4.3-.8.3-.1 1.2-.3 2-.5.8-.1 4.4-1.1 8-2 3.6-.9 7.3-1.9 8.3-2.1 1-.2 2.7-.6 3.7-.9 1-.3 2.8-.8 3.9-1 4.7-1.1 5.8-1.3 10.1-2.5 4-1.1 7.1-1.8 10.7-2.4.7-.1 1.6-.5 1.9-.9.4-.4 1.4-.1 2.2.6 1 .7 1.3.8.9.1-.7-1.1 1.2-1.9 7.2-3 1.4-.3 5.8-1.4 10-2.6 4.1-1.1 8-2.1 8.6-2.3 1.8-.3 9-1.9 9.5-2 3.5-.8 13.1-7.6 13.7-9.8.2-.4.5-1.8.9-3.2.3-1.4.9-2.5 1.3-2.5.9 0 .5-6.9-.8-11.5-1.4-5.2-3.1-7.5-7.8-10.8-6.8-4.7-10.2-4.8-26.4-1zM195 327c-75.1.6-70.4.1-77.6 7.7-4.4 4.7-4.5 4.8-4.7 14.3-.1 4.8.3 7.2 1.7 9.2 1 1.6 1.5 2.8 1.1 2.8-1.1 0 4.8 4.6 8.1 6.3 1.7.9 4.4 1.9 6 2.2 2.6.4 433.7.7 440.9.2 1.7-.1 3.2-.5 3.5-.8.3-.3 1.9-1.4 3.7-2.3 9.3-4.7 13.1-19.8 7.3-29.1-1.8-2.9-8.2-9.3-8.7-8.7-.8.7-2.3 0-1.8-.8.4-.6-54.9-1-155.1-1-85.6 0-155.9-.1-156.3-.3-.3-.1-31 0-68.1.3zM133.5 426c-3.8.9-8.8 3.4-10.4 5.4-.7.9-1.8 1.3-2.5.9-.6-.3-.8-.3-.5.1.4.4-.4 3.2-1.6 6.2-2.3 5.7-2.5 10.7-.6 15.7 1.1 3 6.6 9.4 9.2 10.8 1.4.7 28.8 8 38.9 10.4.8.2 6.2 1.5 12 3 5.8 1.4 11.2 2.8 12 3 1.4.3 9.2 2.3 11.5 2.8.6.2 3.8.9 7.2 1.7 3.4.8 5.9 1.8 5.6 2.3-.3.6-.1.7.5.3.6-.3 3-.2 5.4.4 2.4.6 5.4 1.3 6.8 1.6 2.6.5 8.4 2.2 11 3.1.8.3 2.8.7 4.3.9 1.6.2 7.2 1.5 12.5 2.9s10.8 2.8 12.2 3.1c1.4.2 3.2.7 4 1.1.8.3 2.9.7 4.5.9 1.7.3 3.2.9 3.3 1.4.2.6.7.8 1.2.5.4-.3 7.9 1.3 16.6 3.5 8.8 2.3 16.8 4.3 17.9 4.5 10.4 2.3 20.4 5.3 19.8 6-.5.4-.3.5.4.1s5 .3 9.5 1.4c4.6 1.1 9.4 2.3 10.8 2.6 2.6.5 8.4 2.1 11 3.1.8.3 2.5.7 3.8.9 6.4.8 13.1 2.8 12.5 3.7-.3.6-.1.7.5.3 1.3-.8 11.4 1.3 10.8 2.3-.3.3.7.6 2.1.5 1.4 0 5.8.8 9.7 1.9 3.9 1 7.6 2 8.1 2.1.6.1 3.6.8 6.8 1.5 3.1.7 5.5 1.6 5.3 2-.2.3.8.6 2.2.5 2.6-.1 7.9 1 11.2 2.3.8.3 2.4.7 3.6.8 1.2.1 3 .5 4 .9s3 1 4.4 1.2c1.4.3 2.6.9 2.8 1.3.1.5 1.4.6 2.9.3 1.9-.4 2.4-.2 1.8.8-.5.9-.4 1.1.4.6 1.1-.7 11 1.2 12.1 2.4.3.3 1.2.6 2 .6 3.1.3 28.5 6.5 32 7.8.8.3 2.7.8 4.3 1.1 5.7 1.1 8 1.6 13.5 3.1 3.2.8 6.4 1.7 7.2 1.9.8.2 7.3 1.8 14.4 3.5 17.5 4.4 22.9 3.7 29.9-3.5 8.2-8.6 7.5-22.6-1.6-30.7-2.3-2.1-10.8-5.4-15.7-6.2-1.9-.3-3.6-1-3.8-1.6-.2-.5-.7-.8-1.2-.5-.7.4-7.6-.9-16-3.1-.8-.2-4.7-1.1-8.7-2-4.3-1-7-2.1-6.6-2.7.3-.6.1-.7-.5-.3-1 .6-10.1-1.5-48.2-11-.8-.2-4.7-1.1-8.7-2-4.3-1-7-2.1-6.6-2.7.3-.6.1-.7-.5-.3-.5.3-4.1-.1-7.9-1-3.7-.9-7.5-1.7-8.3-1.9-.8-.2-1.6-.4-1.7-.5-.4-.3-.7-.4-7.8-1.9-3.3-.7-6.4-1.6-7-1.9-.5-.4-1.9-.8-3-.9-3.9-.6-28-6.7-28.5-7.3-.3-.3-1.6-.6-3-.7-1.4-.1-4.5-.7-7-1.3-2.5-.7-5.2-1.3-6-1.5-.8-.2-1.6-.4-1.7-.5-.2-.2-.6-.3-1-.4-4.2-1-7.2-1.7-9.3-2.1-1.4-.3-2.6-.9-2.8-1.4-.2-.6-.9-.8-1.5-.5-.7.2-6.4-.9-12.8-2.5-6.3-1.7-12.6-3.2-14-3.5-1.3-.3-5.1-1.2-8.4-2.1-3.3-.8-9.6-2.4-14-3.4-12.5-3-28.6-7-32.5-8.1-1.9-.5-6.4-1.7-10-2.6l-8-2c-5.1-1.2-10.7-2.6-12-2.9-18.9-4.4-47.6-12-47.8-12.7-.2-.4-.7-.6-1.2-.3-.4.3-4.5-.5-9.1-1.6-4.6-1.2-9.1-2.2-9.9-2.4-.8-.2-3.5-.8-6-1.5s-5.2-1.4-6-1.5c-.8-.2-1.5-.4-1.5-.5 0-.1-1.1-.4-2.5-.6-1.4-.3-4.3-.9-6.5-1.5-5.1-1.4-7-1.9-12.5-3-7.3-1.5-8.4-1.6-11.5-.9zM132.6 472.2c.3.5 1 .6 1.5.3 1.3-.9 1.1-1.2-.6-1.2-.8 0-1.2.4-.9.9z"/></svg>